<svg width="146" height="20" viewBox="0 0 146 20" fill="none" xmlns="http://www.w3.org/2000/svg">
<path d="M12.152 18.256C11.656 18.576 11.056 18.848 10.352 19.072C9.648 19.296 8.856 19.408 7.976 19.408C6.312 19.408 5.076 18.984 4.268 18.136C3.46 17.28 3.056 16.12 3.056 14.656V8.872H0.38V6.256H3.056V3.496L6.848 3.04V6.256H10.952L10.58 8.872H6.848V14.656C6.848 15.288 6.992 15.74 7.28 16.012C7.568 16.284 8.028 16.42 8.66 16.42C9.108 16.42 9.516 16.368 9.884 16.264C10.26 16.152 10.596 16.012 10.892 15.844L12.152 18.256ZM17.6386 13.732C17.7666 14.772 18.1066 15.52 18.6586 15.976C19.2106 16.424 19.8906 16.648 20.6986 16.648C21.2826 16.648 21.8466 16.552 22.3906 16.36C22.9346 16.168 23.4586 15.912 23.9626 15.592L25.4866 17.656C24.8866 18.168 24.1586 18.588 23.3026 18.916C22.4546 19.244 21.4866 19.408 20.3986 19.408C18.9426 19.408 17.7226 19.12 16.7386 18.544C15.7546 17.96 15.0146 17.16 14.5186 16.144C14.0226 15.128 13.7746 13.96 13.7746 12.64C13.7746 11.384 14.0146 10.244 14.4946 9.22C14.9746 8.188 15.6746 7.368 16.5946 6.76C17.5226 6.144 18.6546 5.836 19.9906 5.836C21.2066 5.836 22.2586 6.096 23.1466 6.616C24.0426 7.136 24.7346 7.884 25.2226 8.86C25.7186 9.836 25.9666 11.008 25.9666 12.376C25.9666 12.592 25.9586 12.824 25.9426 13.072C25.9346 13.32 25.9186 13.54 25.8946 13.732H17.6386ZM19.9906 8.38C19.3106 8.38 18.7626 8.624 18.3466 9.112C17.9306 9.6 17.6786 10.38 17.5906 11.452H22.2706C22.2626 10.524 22.0826 9.78 21.7306 9.22C21.3786 8.66 20.7986 8.38 19.9906 8.38ZM31.8132 0.795999V19H28.0212V1.192L31.8132 0.795999ZM40.1172 6.256L35.9292 11.896L40.4653 19H36.1452L31.9572 12.016L36.1452 6.256H40.1172Z" fill="#369795"/>
<path d="M46.7098 6.32031L46.8153 7.78516C47.7216 6.65234 48.9364 6.08594 50.4598 6.08594C51.8036 6.08594 52.8036 6.48047 53.4598 7.26953C54.1161 8.05859 54.452 9.23828 54.4677 10.8086V19H51.0809V10.8906C51.0809 10.1719 50.9247 9.65234 50.6122 9.33203C50.2997 9.00391 49.7802 8.83984 49.0536 8.83984C48.1005 8.83984 47.3856 9.24609 46.9091 10.0586V19H43.5223V6.32031H46.7098ZM58.0784 12.543C58.0784 11.2852 58.3206 10.1641 58.805 9.17969C59.2894 8.19531 59.9847 7.43359 60.8909 6.89453C61.805 6.35547 62.8636 6.08594 64.0667 6.08594C65.7777 6.08594 67.1722 6.60938 68.2503 7.65625C69.3363 8.70312 69.9417 10.125 70.0667 11.9219L70.0902 12.7891C70.0902 14.7344 69.5472 16.2969 68.4613 17.4766C67.3753 18.6484 65.9183 19.2344 64.0902 19.2344C62.262 19.2344 60.8011 18.6484 59.7073 17.4766C58.6214 16.3047 58.0784 14.7109 58.0784 12.6953V12.543ZM61.4652 12.7891C61.4652 13.9922 61.6917 14.9141 62.1448 15.5547C62.598 16.1875 63.2464 16.5039 64.0902 16.5039C64.9105 16.5039 65.5511 16.1914 66.012 15.5664C66.473 14.9336 66.7034 13.9258 66.7034 12.543C66.7034 11.3633 66.473 10.4492 66.012 9.80078C65.5511 9.15234 64.9027 8.82812 64.0667 8.82812C63.2386 8.82812 62.598 9.15234 62.1448 9.80078C61.6917 10.4414 61.4652 11.4375 61.4652 12.7891ZM80.6033 15.4961C80.6033 15.082 80.3962 14.7578 79.9822 14.5234C79.5759 14.2812 78.9197 14.0664 78.0134 13.8789C74.9978 13.2461 73.49 11.9648 73.49 10.0352C73.49 8.91016 73.9548 7.97266 74.8845 7.22266C75.822 6.46484 77.0447 6.08594 78.5525 6.08594C80.1619 6.08594 81.447 6.46484 82.408 7.22266C83.3767 7.98047 83.8611 8.96484 83.8611 10.1758H80.4744C80.4744 9.69141 80.3181 9.29297 80.0056 8.98047C79.6931 8.66016 79.2048 8.5 78.5408 8.5C77.9705 8.5 77.5291 8.62891 77.2166 8.88672C76.9041 9.14453 76.7478 9.47266 76.7478 9.87109C76.7478 10.2461 76.9236 10.5508 77.2752 10.7852C77.6345 11.0117 78.2361 11.2109 79.0798 11.3828C79.9236 11.5469 80.6345 11.7344 81.2127 11.9453C83.0017 12.6016 83.8962 13.7383 83.8962 15.3555C83.8962 16.5117 83.4002 17.4492 82.408 18.168C81.4158 18.8789 80.1345 19.2344 78.5642 19.2344C77.5017 19.2344 76.5564 19.0469 75.7283 18.6719C74.908 18.2891 74.2634 17.7695 73.7947 17.1133C73.3259 16.4492 73.0916 15.7344 73.0916 14.9688H76.3025C76.3337 15.5703 76.5564 16.0312 76.9705 16.3516C77.3845 16.6719 77.9392 16.832 78.6345 16.832C79.283 16.832 79.7712 16.7109 80.0994 16.4688C80.4353 16.2188 80.6033 15.8945 80.6033 15.4961ZM91.7023 3.20312V6.32031H93.8703V8.80469H91.7023V15.1328C91.7023 15.6016 91.7922 15.9375 91.9719 16.1406C92.1516 16.3438 92.4953 16.4453 93.0031 16.4453C93.3781 16.4453 93.7102 16.418 93.9992 16.3633V18.9297C93.3352 19.1328 92.6516 19.2344 91.9484 19.2344C89.5734 19.2344 88.3625 18.0352 88.3156 15.6367V8.80469H86.4641V6.32031H88.3156V3.20312H91.7023ZM96.4381 12.543C96.4381 11.2852 96.6803 10.1641 97.1647 9.17969C97.6491 8.19531 98.3444 7.43359 99.2506 6.89453C100.165 6.35547 101.223 6.08594 102.426 6.08594C104.137 6.08594 105.532 6.60938 106.61 7.65625C107.696 8.70312 108.301 10.125 108.426 11.9219L108.45 12.7891C108.45 14.7344 107.907 16.2969 106.821 17.4766C105.735 18.6484 104.278 19.2344 102.45 19.2344C100.622 19.2344 99.1608 18.6484 98.067 17.4766C96.9811 16.3047 96.4381 14.7109 96.4381 12.6953V12.543ZM99.8248 12.7891C99.8248 13.9922 100.051 14.9141 100.505 15.5547C100.958 16.1875 101.606 16.5039 102.45 16.5039C103.27 16.5039 103.911 16.1914 104.372 15.5664C104.833 14.9336 105.063 13.9258 105.063 12.543C105.063 11.3633 104.833 10.4492 104.372 9.80078C103.911 9.15234 103.262 8.82812 102.426 8.82812C101.598 8.82812 100.958 9.15234 100.505 9.80078C100.051 10.4414 99.8248 11.4375 99.8248 12.7891ZM119.221 9.49609C118.76 9.43359 118.354 9.40234 118.002 9.40234C116.721 9.40234 115.881 9.83594 115.482 10.7031V19H112.096V6.32031H115.295L115.389 7.83203C116.068 6.66797 117.01 6.08594 118.213 6.08594C118.588 6.08594 118.94 6.13672 119.268 6.23828L119.221 9.49609ZM128.023 19.2344C126.164 19.2344 124.648 18.6641 123.476 17.5234C122.312 16.3828 121.73 14.8633 121.73 12.9648V12.6367C121.73 11.3633 121.976 10.2266 122.468 9.22656C122.96 8.21875 123.656 7.44531 124.554 6.90625C125.46 6.35938 126.492 6.08594 127.648 6.08594C129.382 6.08594 130.746 6.63281 131.738 7.72656C132.738 8.82031 133.238 10.3711 133.238 12.3789V13.7617H125.164C125.273 14.5898 125.601 15.2539 126.148 15.7539C126.703 16.2539 127.402 16.5039 128.246 16.5039C129.55 16.5039 130.57 16.0312 131.304 15.0859L132.968 16.9492C132.46 17.668 131.773 18.2305 130.906 18.6367C130.039 19.0352 129.078 19.2344 128.023 19.2344ZM127.636 8.82812C126.964 8.82812 126.417 9.05469 125.996 9.50781C125.582 9.96094 125.316 10.6094 125.199 11.4531H129.91V11.1836C129.894 10.4336 129.691 9.85547 129.3 9.44922C128.91 9.03516 128.355 8.82812 127.636 8.82812Z" fill="#333333"/>
<path d="M139.955 16.732C139.955 16.244 140.075 15.8 140.315 15.4C140.555 14.992 140.879 14.668 141.287 14.428C141.695 14.18 142.143 14.056 142.631 14.056C143.127 14.056 143.575 14.18 143.975 14.428C144.383 14.668 144.707 14.992 144.947 15.4C145.187 15.8 145.307 16.244 145.307 16.732C145.307 17.212 145.187 17.656 144.947 18.064C144.707 18.472 144.383 18.796 143.975 19.036C143.575 19.284 143.127 19.408 142.631 19.408C142.143 19.408 141.695 19.284 141.287 19.036C140.879 18.796 140.555 18.472 140.315 18.064C140.075 17.656 139.955 17.212 139.955 16.732Z" fill="#42847C"/>
</svg>
